<?xml version="1.0" encoding="UTF-8" standalone="no"?>
<svg
   version="1.1"
   x="0"
   y="0"
   width="530"
   height="530"
   viewBox="0 0 530 530"
   id="svg33"
   xmlns="http://www.w3.org/2000/svg"
   xmlns:svg="http://www.w3.org/2000/svg">
  <defs
     id="defs37" />
  <g
     id="Layer_1"
     transform="translate(-46.727,-52.687)">
    <path
       d="m 572.227,356.578 3.836,41.882 c 0,47.133 -115.469,85.336 -257.907,85.336 -142.437,0 -257.922,-38.203 -257.922,-85.336 l 1.735,-42.679 510.258,0.797"
       fill="#f8ca79"
       id="path2" />
    <path
       d="m 572.227,359.344 c 0,29.976 -42.86,56.398 -113.485,71.616 -40.437,8.711 -88.726,16.556 -140.586,16.556 -51.875,0 -100.945,-3.329 -141.39,-12.039 C 106.141,420.257 61.75,389.32 61.75,359.344 c 0,-29.969 44.563,-59.946 115.195,-75.173 40.43,-8.71 89.336,-11.866 141.211,-11.866 51.86,0 99.453,10.687 139.883,19.406 70.633,15.226 114.188,37.664 114.188,67.633"
       fill="#d6812f"
       id="path4" />
    <path
       d="m 559.391,294.625 3.828,41.875 c 0,47.141 -115.469,85.344 -257.914,85.344 -142.43,0 -257.914,-38.203 -257.914,-85.344 l 1.742,-42.672 510.258,0.797"
       fill="#f8ca79"
       id="path6" />
    <path
       d="m 559.391,297.391 c 0,29.976 -42.86,56.382 -113.485,71.61 -40.445,8.718 -88.726,16.554 -140.601,16.554 -51.852,0 -100.938,-3.321 -141.375,-12.032 C 93.297,358.297 48.899,327.367 48.899,297.391 c 0,-29.97 44.57,-59.946 115.195,-75.172 40.437,-8.718 89.359,-11.867 141.211,-11.867 51.875,0 99.461,10.695 139.898,19.398 70.625,15.234 114.188,37.671 114.188,67.641"
       fill="#d6812f"
       id="path8" />
    <path
       d="m 572.227,235.844 3.836,41.875 c 0,47.14 -115.469,85.344 -257.907,85.344 -142.437,0 -257.922,-38.204 -257.922,-85.344 l 1.735,-42.68 510.258,0.805"
       fill="#f8ca79"
       id="path10" />
    <path
       d="m 572.227,238.609 c 0,29.962 -42.86,56.383 -113.485,71.61 -40.437,8.719 -88.726,16.546 -140.586,16.546 -51.875,0 -100.945,-3.312 -141.39,-12.03 C 106.141,299.507 61.75,268.571 61.75,238.609 c 0,-29.976 44.563,-59.96 115.195,-75.179 40.43,-8.703 89.336,-11.852 141.211,-11.852 51.86,0 99.453,10.672 139.883,19.399 70.633,15.219 114.188,37.656 114.188,67.632"
       fill="#d6812f"
       id="path12" />
    <path
       d="m 181.604,411.406 c 1.373,14.569 6.714,26.531 17.393,26.531 3.72,0 8.087,-1.452 13.159,-4.749 4.919,-3.196 8.002,-8.839 9.757,-15.904 -14.018,-1.584 -27.495,-3.556 -40.309,-5.878"
       fill="#c16c34"
       id="path14" />
    <path
       d="m 184.153,377.328 c -1.431,8.37 -2.536,15.886 -2.801,21.485 -0.205,4.266 -0.131,8.53 0.252,12.593 12.814,2.322 26.291,4.294 40.309,5.878 2.45,-9.865 2.31,-22.504 0.961,-35.12 -13.445,-1.231 -26.398,-2.827 -38.721,-4.836"
       fill="#c5773e"
       id="path16" />
    <path
       d="m 188.77,351.565 c -1.536,8.742 -3.229,17.653 -4.617,25.763 12.323,2.009 25.276,3.605 38.721,4.836 -0.951,-8.896 -2.503,-17.78 -4.17,-25.677 -10.334,-1.43 -20.334,-3.077 -29.934,-4.922"
       fill="#c16c34"
       id="path18" />
    <path
       d="m 193.02,317.875 c -0.178,8.988 -2.051,21.166 -4.25,33.69 9.6,1.845 19.6,3.492 29.934,4.922 -2.44,-11.552 -5.129,-20.987 -6.548,-25.237 -1.115,-3.345 -1.535,-6.936 -1.069,-10.623 -6.162,-0.823 -12.188,-1.738 -18.067,-2.752"
       fill="#c5773e"
       id="path20" />
    <path
       d="m 315.645,176.414 c -42.482,0.003 -88.136,17.969 -109.41,24.445 -27.258,8.298 -47.415,14.227 -60.438,46.235 -13.047,32 33.18,49.781 43.844,56.89 2.613,1.745 3.518,6.834 3.379,13.891 5.879,1.014 11.905,1.929 18.067,2.752 1.519,-11.993 12.431,-24.998 39.405,-33.83 9.365,-3.064 18.969,-4.201 28.951,-4.201 14.393,0 29.571,2.365 45.947,4.732 16.376,2.365 33.949,4.731 53.139,4.731 10.062,0 20.571,-0.651 31.58,-2.293 27.876,-4.156 62.829,-22.524 55.711,-61.641 -7.117,-39.118 -73.484,-36.743 -122.078,-48.594 -8.99,-2.193 -18.459,-3.117 -28.097,-3.117"
       fill="#c16c34"
       id="path22" />
    <path
       d="m 453.969,248.875 c -2.781,11.156 -11.844,24.297 -29.633,29.039 -17.781,4.742 -17.187,0 -4.148,-6.523 13.046,-6.524 29.624,-22.516 27.851,-33.188 -1.766,-10.664 9.188,-2.367 5.93,10.672"
       fill="#e7b273"
       id="path24" />
    <path
       d="m 154.086,256.57 c -0.336,7.703 4.149,20.149 12.445,22.524 8.297,2.367 -6.812,-16.297 -6.515,-25.485 0.211,-6.906 -5.539,-6.32 -5.93,2.961"
       fill="#e7b273"
       id="path26" />
    <path
       d="m 255.234,235.438 c 0,0 -2.375,-2.18 -6.312,3.164 -5,6.75 4.734,21.336 28.828,7.109 12.836,-7.578 34.383,2.367 51.774,3.945 17.382,1.578 34.765,-1.578 37.929,-11.054 3.156,-9.493 -7.906,-17.391 -7.906,-17.391 3.156,-25.289 -12.563,-55.758 -45.844,-53.742 -26.078,1.586 -48.578,7.562 -56.093,34.781 -6.329,22.914 -2.376,33.188 -2.376,33.188"
       fill="#f8ca79"
       id="path28" />
    <path
       d="m 356.375,223.578 c -1.172,8.297 -5.133,10.672 -21.726,11.86 -16.586,1.179 -33.196,0 -33.196,0 0,0 43.875,-11.86 42.68,-29.633 -1.18,-17.782 4.351,-16.992 9.102,-5.141 4.726,11.852 3.14,22.914 3.14,22.914"
       fill="#e7b273"
       id="path30" />
  </g>
</svg>
